<svg width="20" height="20" viewBox="0 0 20 20" fill="none" xmlns="http://www.w3.org/2000/svg">
<path d="M7.5 6.66671C7.5 7.32975 7.76339 7.96563 8.23223 8.43447C8.70107 8.90332 9.33696 9.16671 10 9.16671C10.663 9.16671 11.2989 8.90332 11.7678 8.43447C12.2366 7.96563 12.5 7.32975 12.5 6.66671M2.5 14V6.00004C2.5 5.06671 2.5 4.60004 2.68167 4.24337C2.84167 3.92921 3.09583 3.67504 3.41 3.51504C3.76667 3.33337 4.23333 3.33337 5.16667 3.33337H14.8333C15.7667 3.33337 16.2333 3.33337 16.5892 3.51504C16.9033 3.67504 17.1583 3.92921 17.3183 4.24337C17.5 4.59921 17.5 5.06587 17.5 5.99754V14.0034C17.5 14.935 17.5 15.4009 17.3183 15.7567C17.1583 16.0704 16.9031 16.3254 16.5892 16.485C16.2333 16.6667 15.7675 16.6667 14.8358 16.6667H5.16417C4.2325 16.6667 3.76583 16.6667 3.41 16.485C3.09641 16.3253 2.84145 16.0703 2.68167 15.7567C2.5 15.4 2.5 14.9334 2.5 14Z" stroke="#1DA1F2" stroke-width="1.66667" stroke-linecap="round" stroke-linejoin="round"/>
</svg>
