<svg width="148" height="40" viewBox="0 0 148 40" fill="none" xmlns="http://www.w3.org/2000/svg">
<g clip-path="url(#clip0_131_367)">
<path d="M19.2353 0.845703L0.000976562 23.9271H17.312L15.3886 39.3148L34.6229 16.2333H17.312L19.2353 0.845703Z" fill="#F5F5F5"/>
<path d="M61.8551 16.9349V24.0548H51.585V33.8073H43.5156V4.89551H64.0126V12.0155H51.585V16.9349H61.8551Z" fill="#F5F5F5"/>
<path d="M75.2671 4.89453V33.8064H67.8447V4.89453H75.2671Z" fill="#F5F5F5"/>
<path d="M87.5119 11.1523C88.6625 11.1523 89.7844 11.4112 90.8776 11.929C91.9999 12.4181 92.9201 13.0509 93.6394 13.8277V11.7996H101.062V33.8071H93.6394V30.139C93.093 31.3472 92.2587 32.3684 91.1368 33.2028C90.0149 34.0371 88.6625 34.4541 87.0805 34.4541C85.4406 34.4541 83.9013 34.0371 82.4631 33.2028C81.0249 32.3684 79.8451 31.0884 78.9248 29.3622C78.033 27.6076 77.5869 25.407 77.5869 22.7601C77.5869 20.2861 78.033 18.186 78.9248 16.46C79.8451 14.7339 81.0536 13.4249 82.5494 12.5331C84.0742 11.6126 85.7282 11.1523 87.5119 11.1523ZM89.0655 18.4018C88.0011 18.4018 87.1092 18.8333 86.3899 19.6963C85.6994 20.5594 85.3543 21.5806 85.3543 22.7601C85.3543 23.9396 85.7138 24.9321 86.4331 25.7377C87.1524 26.5432 88.1018 26.9458 89.2812 26.9458C89.9138 26.9458 90.5612 26.7877 91.223 26.4714C91.8844 26.1259 92.4456 25.6226 92.9057 24.9609C93.3949 24.2703 93.6394 23.393 93.6394 22.3286V20.2142C93.0067 19.6963 92.2874 19.2648 91.4818 18.9196C90.705 18.5744 89.8994 18.4018 89.0655 18.4018Z" fill="#F5F5F5"/>
<path d="M112.576 11.1514C114.015 11.1514 115.338 11.3672 116.546 11.7987C117.783 12.2014 118.776 12.7624 119.524 13.4816V19.3071C118.776 18.8468 117.927 18.4153 116.978 18.0125C116.028 17.581 115.007 17.3652 113.914 17.3652C113.224 17.3652 112.605 17.5091 112.058 17.7968C111.54 18.0557 111.282 18.4728 111.282 19.0482C111.282 19.4509 111.44 19.753 111.756 19.9544C112.073 20.1557 112.691 20.3715 113.612 20.6016L114.949 20.9469C118.776 21.925 120.689 23.9818 120.689 27.1175C120.689 28.5561 120.257 29.8362 119.394 30.9581C118.56 32.0512 117.452 32.9143 116.072 33.5473C114.719 34.1512 113.252 34.4532 111.67 34.4532C110.03 34.4532 108.505 34.2231 107.096 33.763C105.686 33.2738 104.478 32.6843 103.471 31.9937V26.2113C104.507 26.8443 105.672 27.3763 106.967 27.808C108.29 28.2394 109.469 28.4555 110.505 28.4555C111.339 28.4555 111.943 28.3544 112.317 28.1531C112.72 27.9518 112.921 27.5924 112.921 27.0744C112.921 26.6718 112.691 26.3694 112.231 26.1681C111.771 25.9381 111.109 25.6793 110.246 25.3913L108.045 24.7011C106.434 24.2119 105.255 23.4497 104.507 22.414C103.759 21.3496 103.385 20.055 103.385 18.5304C103.385 17.0057 103.787 15.6967 104.593 14.6035C105.399 13.5104 106.492 12.6617 107.872 12.0576C109.282 11.4535 110.85 11.1514 112.576 11.1514Z" fill="#F5F5F5"/>
<path d="M135.998 11.1516C138.242 11.1516 140.069 11.9139 141.478 13.4386C142.917 14.9633 143.636 17.2216 143.636 20.2135V33.8064H136.214L136.171 21.3786C136.171 20.2854 135.868 19.5231 135.265 19.0915C134.66 18.6313 133.984 18.4011 133.236 18.4011C132.431 18.4011 131.755 18.6169 131.208 19.0484C130.662 19.4511 130.187 19.9402 129.784 20.5156V33.8064H122.362V4.89453H129.784V14.6469C130.475 13.6976 131.309 12.8777 132.287 12.1873C133.294 11.4968 134.531 11.1516 135.998 11.1516Z" fill="#F5F5F5"/>
<path d="M143.261 5.06445V5.98256H142.156V8.77593H141.107V5.98256H140.002V5.06445H143.261Z" fill="#F5F5F5"/>
<path d="M147.571 5.00781V8.79164H146.522V6.95539L145.754 7.81787H145.439L144.671 6.95539V8.79164H143.621V5.00781H143.992L145.597 6.6215L147.201 5.00781H147.571Z" fill="#F5F5F5"/>
</g>
<defs>
<clipPath id="clip0_131_367">
<rect width="148" height="40" fill="white" transform="translate(0.000976562)"/>
</clipPath>
</defs>
</svg>
