<svg width="156" height="40" viewBox="0 0 156 40" fill="none" xmlns="http://www.w3.org/2000/svg">
<path d="M52.75 30.8958C54.3203 31.6699 56.2001 32.0569 58.3897 32.0569C60.6897 32.0569 62.6691 31.6256 64.3279 30.7631C65.9866 29.9005 67.2914 28.7505 68.2424 27.3129C69.1934 25.8754 69.7794 24.2941 70.0006 22.569H65.2567C64.9914 24.1835 64.2283 25.4442 62.9677 26.3509C61.7292 27.2356 60.2032 27.6779 58.3897 27.6779C57.1511 27.6779 56.0564 27.4678 55.1054 27.0476C54.1766 26.6273 53.3914 26.0413 52.75 25.2894C52.1087 24.5152 51.6221 23.6196 51.2904 22.6022C50.9807 21.5849 50.8259 20.4791 50.8259 19.2848C50.8259 18.0463 50.9807 16.9184 51.2904 15.901C51.6221 14.8837 52.0976 13.999 52.7169 13.2471C53.3361 12.4952 54.1102 11.9201 55.039 11.522C55.968 11.1018 57.0295 10.8917 58.2238 10.8917C59.396 10.8917 60.4464 11.0907 61.3754 11.4889C62.3042 11.8648 63.0672 12.4398 63.6644 13.2139C64.2836 13.9659 64.6817 14.8947 64.8586 16.0005H69.6026C69.4035 14.0986 68.8174 12.4398 67.8443 11.0244C66.8712 9.58681 65.5663 8.48104 63.9297 7.70697C62.3153 6.91079 60.4133 6.5127 58.2238 6.5127C56.1228 6.5127 54.2982 6.87761 52.75 7.60744C51.2241 8.31516 49.9634 9.26613 48.9681 10.4604C47.9729 11.6547 47.2321 12.9817 46.7455 14.4414C46.2811 15.901 46.0488 17.3828 46.0488 18.8867V19.6165C46.0488 20.9656 46.2811 22.37 46.7455 23.8296C47.2099 25.2894 47.9287 26.6384 48.9018 27.8769C49.8971 29.1154 51.1798 30.1217 52.75 30.8958Z" fill="#F5F5F5"/>
<path fill-rule="evenodd" clip-rule="evenodd" d="M82.3022 29.2369C82.5302 28.8504 82.7182 28.4239 82.8662 27.9573V31.4264H86.5153V20.2467C86.5153 18.5659 86.1945 17.2058 85.5536 16.1663C84.9341 15.1269 84.0052 14.3638 82.7666 13.8772C81.5503 13.3907 80.0132 13.1475 78.1554 13.1475C77.5583 13.1475 76.917 13.1585 76.2313 13.1806C75.5679 13.1806 74.9154 13.2027 74.2741 13.247C73.6327 13.2912 73.0576 13.3354 72.549 13.3796V17.2942C73.1683 17.25 73.865 17.2168 74.639 17.1947C75.4352 17.1504 76.2203 17.1172 76.9943 17.0952C77.7684 17.0731 78.4319 17.062 78.9848 17.062C80.0464 17.062 80.8315 17.3163 81.3402 17.825C81.8489 18.3337 82.1032 19.1077 82.1032 20.1472V20.3131H78.4209C76.8284 20.3131 75.4352 20.5232 74.2409 20.9434C73.0687 21.3636 72.1509 21.9939 71.4874 22.8344C70.8461 23.6747 70.5254 24.7584 70.5254 26.0854C70.5254 27.3018 70.7908 28.3413 71.3216 29.2038C71.8745 30.0663 72.6375 30.7298 73.6106 31.1943C74.6058 31.6587 75.7559 31.8909 77.0607 31.8909C78.3213 31.8909 79.3829 31.6698 80.2455 31.2274C81.1301 30.763 81.8157 30.0995 82.3022 29.2369ZM81.4729 27.0807C81.8489 26.5056 82.059 25.7315 82.1032 24.7584V23.0665H78.3545C77.293 23.0665 76.4747 23.3319 75.8996 23.8627C75.3467 24.3714 75.0702 25.0349 75.0702 25.8532C75.0702 26.6715 75.3467 27.335 75.8996 27.8436C76.4747 28.3523 77.293 28.6066 78.3545 28.6066C78.9958 28.6066 79.582 28.4961 80.1127 28.2749C80.6656 28.0316 81.119 27.6335 81.4729 27.0807Z" fill="#F5F5F5"/>
<path d="M97.7923 32.0574C96.2221 32.0574 94.8621 31.7921 93.7115 31.2612C92.5838 30.7304 91.6332 30.0228 90.8587 29.1381C90.1072 28.2534 89.543 27.2583 89.1668 26.1524C88.7906 25.0466 88.6025 23.9187 88.6025 22.7687V22.1384C88.6025 20.9219 88.7906 19.7608 89.1668 18.655C89.5651 17.5271 90.1515 16.5319 90.9251 15.6693C91.6996 14.7847 92.6502 14.0881 93.7779 13.5794C94.9285 13.0486 96.2553 12.7832 97.7591 12.7832C99.3293 12.7832 100.734 13.0928 101.972 13.7121C103.211 14.3092 104.195 15.1496 104.925 16.2333C105.677 17.317 106.097 18.5776 106.185 20.0152H101.706C101.597 19.0863 101.198 18.3122 100.512 17.693C99.8493 17.0738 98.931 16.7641 97.7591 16.7641C96.7421 16.7641 95.8902 17.0074 95.2042 17.4939C94.5413 17.9805 94.0434 18.655 93.7115 19.5176C93.3804 20.358 93.2144 21.3311 93.2144 22.4369C93.2144 23.4984 93.3693 24.4606 93.6783 25.323C94.0102 26.1856 94.5081 26.8601 95.171 27.3467C95.857 27.8332 96.731 28.0766 97.7923 28.0766C98.5881 28.0766 99.274 27.9327 99.8493 27.6452C100.424 27.3578 100.877 26.9596 101.209 26.4509C101.563 25.9424 101.784 25.3673 101.872 24.7259H106.351C106.263 26.1856 105.831 27.4683 105.057 28.5742C104.305 29.6578 103.3 30.5093 102.038 31.1286C100.8 31.7478 99.3846 32.0574 97.7923 32.0574Z" fill="#F5F5F5"/>
<path d="M112.102 31.0291C113.185 31.4493 114.556 31.6594 116.215 31.6594H118.803V27.7117H115.983C115.098 27.7117 114.413 27.4794 113.927 27.015C113.462 26.5284 113.23 25.8428 113.23 24.9582L113.246 16.7973H118.803V13.4136H113.253L113.263 8.33789H108.95L108.94 13.4136H106.064V16.7973H108.933L108.917 24.6596C108.917 26.4068 109.183 27.8001 109.713 28.8396C110.244 29.857 111.041 30.5867 112.102 31.0291Z" fill="#F5F5F5"/>
<path d="M127.152 31.9917C125.072 31.9917 123.458 31.3061 122.308 29.9348C121.18 28.5637 120.616 26.5289 120.616 23.8307V13.3809H125.227V24.2289C125.227 25.3346 125.537 26.2193 126.156 26.8828C126.775 27.5242 127.615 27.8449 128.677 27.8449C129.739 27.8449 130.601 27.5021 131.265 26.8164C131.951 26.1308 132.293 25.202 132.293 24.0298V13.3809H136.905V31.4277H133.255V27.2329C133.163 27.6145 133.052 27.9733 132.923 28.3093C132.459 29.5257 131.763 30.4435 130.833 31.0627C129.905 31.6821 128.744 31.9917 127.35 31.9917H127.152Z" fill="#F5F5F5"/>
<path d="M141.24 30.432C142.655 31.4715 144.601 31.9912 147.079 31.9912C148.671 31.9912 150.053 31.7479 151.225 31.2614C152.397 30.7748 153.304 30.1003 153.945 29.2377C154.609 28.3531 154.941 27.3136 154.941 26.1193C154.941 24.5049 154.332 23.2221 153.116 22.2712C151.922 21.3202 150.264 20.734 148.14 20.5129L146.548 20.3471C145.575 20.2364 144.867 20.0264 144.424 19.7168C144.004 19.4071 143.795 18.9648 143.795 18.3898C143.795 17.7926 144.059 17.306 144.59 16.9301C145.121 16.5541 145.873 16.3661 146.847 16.3661C147.93 16.3661 148.76 16.5873 149.334 17.0296C149.909 17.4719 150.219 18.0027 150.264 18.622H154.41C154.344 16.7421 153.625 15.3156 152.253 14.3425C150.882 13.3694 149.091 12.8828 146.88 12.8828C145.464 12.8828 144.203 13.104 143.098 13.5463C142.014 13.9666 141.162 14.5969 140.544 15.4373C139.924 16.2777 139.614 17.3171 139.614 18.5557C139.614 20.1037 140.156 21.3423 141.24 22.2712C142.324 23.2 143.872 23.7751 145.884 23.9962L147.476 24.162C148.671 24.2727 149.511 24.5049 149.998 24.8587C150.507 25.2126 150.761 25.6881 150.761 26.2852C150.761 26.9708 150.429 27.5127 149.766 27.9108C149.124 28.3089 148.251 28.5079 147.145 28.5079C145.818 28.5079 144.845 28.2535 144.225 27.7449C143.607 27.2363 143.264 26.6723 143.197 26.053H139.051C139.116 27.9108 139.847 29.3705 141.24 30.432Z" fill="#F5F5F5"/>
<path fill-rule="evenodd" clip-rule="evenodd" d="M19.9029 0C8.9108 0 0 8.91081 0 19.9029C0 30.895 8.9108 39.8058 19.9029 39.8058C30.8949 39.8058 39.8057 30.895 39.8057 19.9029C39.8057 8.91081 30.8949 0 19.9029 0ZM4.46289 19.9029C4.46289 11.3757 11.3756 4.46289 19.9029 4.46289C28.4302 4.46289 35.3428 11.3757 35.3428 19.9029C35.3428 27.6851 29.5854 34.1226 22.0977 35.1881V31.7823L26.0606 30.3194C28.3508 29.4739 29.872 27.291 29.872 24.8496V18.1437C29.872 16.9114 28.8729 15.9123 27.6405 15.9123C26.408 15.9123 25.4091 16.9114 25.4091 18.1437V24.8496C25.4091 25.4223 25.0522 25.9343 24.515 26.1327L22.0977 27.025V9.36204C22.0977 8.12968 21.0986 7.13063 19.8662 7.13063C18.6338 7.13063 17.6348 8.12968 17.6348 9.36204V18.9365L15.2896 18.0708C14.7523 17.8724 14.3956 17.3604 14.3956 16.7877V13.8969C14.3956 12.6646 13.3965 11.6655 12.1642 11.6655C10.9317 11.6655 9.93267 12.6646 9.93267 13.8969V16.7877C9.93267 19.2291 11.4537 21.412 13.744 22.2574L17.6348 23.6938V35.1774C10.1828 34.0804 4.46289 27.6597 4.46289 19.9029Z" fill="#F5F5F5"/>
</svg>
