<svg width="152" height="40" viewBox="0 0 152 40" fill="none" xmlns="http://www.w3.org/2000/svg">
<g clip-path="url(#clip0_131_340)">
<path d="M80.3548 19.3941C79.4066 20.316 78.9327 21.6592 78.9327 23.424V34.4468H72.6113V12.7961H77.629V19.9409C77.869 17.9015 78.4751 16.2573 79.4464 15.0086C80.763 13.3492 82.6595 12.5195 85.1352 12.5195H85.9651V17.9717H84.3849C82.6466 17.9717 81.303 18.4458 80.3548 19.3941Z" fill="#F5F5F5"/>
<path fill-rule="evenodd" clip-rule="evenodd" d="M99.516 31.8009C99.7875 31.3405 100.011 30.8325 100.188 30.2768V34.4476H105.205V21.1728C105.205 19.171 104.81 17.538 104.02 16.2737C103.23 14.9831 102.071 14.0217 100.543 13.3895C99.0422 12.7574 97.1849 12.4414 94.9727 12.4414C94.2085 12.4414 93.392 12.4546 92.5228 12.4809C91.6537 12.5072 90.8108 12.5468 89.9944 12.5994C89.1779 12.652 88.4669 12.7048 87.8607 12.7574V18.0911C88.6772 18.0385 89.5862 17.9857 90.5872 17.9331C91.5881 17.8804 92.5626 17.8409 93.5109 17.8146C94.4592 17.7882 95.2228 17.775 95.8021 17.775C96.9613 17.775 97.804 18.0516 98.3306 18.6048C98.8577 19.1578 99.1207 19.9875 99.1207 21.0938V21.1728H95.2095C93.2866 21.1728 91.5881 21.423 90.1127 21.9234C88.6379 22.3976 87.4923 23.1482 86.6759 24.1755C85.8594 25.1764 85.4512 26.467 85.4512 28.0472C85.4512 29.4961 85.7803 30.7472 86.4386 31.8009C87.097 32.8281 88.006 33.6183 89.1645 34.1712C90.3499 34.724 91.7199 35.0011 93.2737 35.0011C94.7748 35.0011 96.0394 34.724 97.0666 34.1712C98.1203 33.6183 98.9367 32.8281 99.516 31.8009ZM98.4887 28.9561C98.8577 28.3499 99.0685 27.5074 99.1207 26.4275V24.6891H95.1702C94.0638 24.6891 93.2076 24.9656 92.6019 25.5188C92.0226 26.0455 91.7327 26.7699 91.7327 27.6917C91.7327 28.5608 92.0226 29.2718 92.6019 29.8253C93.2076 30.3518 94.0638 30.6154 95.1702 30.6154C95.8813 30.6154 96.5132 30.4971 97.0666 30.2599C97.6459 29.9964 98.1203 29.5617 98.4887 28.9561Z" fill="#F5F5F5"/>
<path d="M118.313 35.1993C116.444 35.1993 114.81 34.8964 113.414 34.2903C112.045 33.6583 110.898 32.8155 109.976 31.7618C109.054 30.7082 108.37 29.5233 107.923 28.2061C107.474 26.8628 107.251 25.48 107.251 24.0577V23.307C107.251 21.832 107.488 20.4229 107.962 19.0796C108.436 17.71 109.134 16.4983 110.055 15.4448C110.977 14.3911 112.124 13.5615 113.493 12.9557C114.889 12.3499 116.483 12.047 118.273 12.047C120.223 12.047 121.948 12.4289 123.449 13.1928C124.95 13.9302 126.149 14.9706 127.045 16.314C127.94 17.6573 128.44 19.1981 128.546 20.9365H122.343C122.237 19.962 121.843 19.1455 121.158 18.4869C120.499 17.8022 119.538 17.4598 118.273 17.4598C117.219 17.4598 116.337 17.7231 115.627 18.2499C114.941 18.7767 114.428 19.501 114.086 20.4229C113.743 21.3448 113.572 22.4379 113.572 23.7021C113.572 24.861 113.73 25.9146 114.046 26.8628C114.363 27.7847 114.863 28.5088 115.548 29.036C116.258 29.5362 117.18 29.7863 118.313 29.7863C119.156 29.7863 119.867 29.6416 120.447 29.3517C121.052 29.036 121.527 28.6143 121.869 28.0878C122.237 27.5345 122.461 26.9024 122.54 26.1911H128.704C128.625 27.9823 128.125 29.5625 127.203 30.9324C126.28 32.2755 125.056 33.3291 123.528 34.0928C122 34.8303 120.263 35.1993 118.313 35.1993Z" fill="#F5F5F5"/>
<path fill-rule="evenodd" clip-rule="evenodd" d="M135.787 34.2509C137.209 34.8828 138.842 35.1991 140.686 35.1991C142.504 35.1991 144.11 34.8828 145.506 34.2509C146.902 33.6189 148.06 32.7362 148.983 31.6035C149.905 30.4714 150.524 29.1805 150.839 27.7319H145.032C144.769 28.3903 144.268 28.9433 143.531 29.3913C142.793 29.8388 141.845 30.0631 140.686 30.0631C139.422 30.0631 138.394 29.7996 137.605 29.2725C136.814 28.7459 136.234 28.0083 135.866 27.0602C135.661 26.5168 135.512 25.924 135.421 25.2822H151.234V23.1489C151.234 21.1734 150.813 19.356 149.97 17.6967C149.128 16.011 147.903 14.6545 146.296 13.6272C144.716 12.5736 142.767 12.0469 140.449 12.0469C138.684 12.0469 137.104 12.363 135.708 12.9951C134.338 13.6009 133.192 14.4306 132.271 15.4841C131.349 16.5377 130.637 17.7361 130.137 19.0794C129.663 20.3963 129.426 21.7792 129.426 23.2278V24.018C129.426 25.414 129.663 26.7836 130.137 28.1269C130.637 29.444 131.349 30.6423 132.271 31.7223C133.218 32.776 134.391 33.6189 135.787 34.2509ZM135.469 21.687C135.568 21.1206 135.713 20.607 135.906 20.1461C136.301 19.1716 136.879 18.4341 137.644 17.9336C138.408 17.4332 139.343 17.183 140.449 17.183C141.529 17.183 142.424 17.4332 143.135 17.9336C143.873 18.4077 144.426 19.1057 144.795 20.0276C144.994 20.5268 145.139 21.0798 145.232 21.687H135.469Z" fill="#F5F5F5"/>
<path d="M57.5595 34.4486V11.257H49.46V5.60725H72.1772V11.257H64.0385V34.4486H57.5595Z" fill="#F5F5F5"/>
<path fill-rule="evenodd" clip-rule="evenodd" d="M19.9394 3.62539C10.9295 3.62539 3.62533 10.9295 3.62533 19.9395C3.62533 28.9496 10.9295 36.2539 19.9394 36.2539C28.9496 36.2539 36.2534 28.9496 36.2534 19.9395C36.2534 10.9295 28.9496 3.62539 19.9394 3.62539ZM0 19.9395C0 8.92722 8.92721 0 19.9394 0C30.9515 0 39.8787 8.92722 39.8787 19.9395C39.8787 30.952 30.9515 39.8793 19.9394 39.8793C8.92721 39.8793 0 30.952 0 19.9395Z" fill="#F5F5F5"/>
<path fill-rule="evenodd" clip-rule="evenodd" d="M29.8868 13.1782C30.4183 11.5044 28.8309 9.93226 27.1622 10.4798L15.7959 14.2094C15.138 14.4253 14.6239 14.9443 14.4144 15.6043L10.8925 26.6984C10.3611 28.3724 11.9485 29.9443 13.6171 29.3969L24.9834 25.6674C25.6414 25.4515 26.1554 24.9324 26.365 24.2724L29.8868 13.1782ZM20.3876 22.5278C21.8177 22.5278 22.9771 21.3684 22.9771 19.9382C22.9771 18.5081 21.8177 17.3487 20.3876 17.3487C18.9575 17.3487 17.798 18.5081 17.798 19.9382C17.798 21.3684 18.9575 22.5278 20.3876 22.5278Z" fill="#F5F5F5"/>
</g>
<defs>
<clipPath id="clip0_131_340">
<rect width="151.579" height="40" fill="white"/>
</clipPath>
</defs>
</svg>
